<svg xmlns="http://www.w3.org/2000/svg" version="1.0" width="920" height="570" preserveAspectRatio="xMidYMid meet" style=""><rect id="backgroundrect" width="100%" height="100%" x="0" y="0" fill="none" stroke="none"/>
<metadata>
Created by potrace 1.15, written by Peter Selinger 2001-2017
</metadata>

<g class="currentLayer" style=""><title>Layer 1</title><g transform="translate(0,570) scale(0.10000000149011612,-0.10000000149011612) " fill="#ffffff" stroke="none" id="svg_1" class="" fill-opacity="1">
<path d="M2273 5255 c-289 -89 -557 -231 -788 -418 -176 -143 -394 -392 -522 -598 -164 -262 -294 -626 -339 -949 -25 -171 -25 -509 -1 -675 86 -589 357 -1076 797 -1428 562 -450 1311 -605 2000 -412 530 148 974 552 1146 1042 16 46 31 83 34 83 3 0 18 -37 34 -83 134 -380 448 -728 831 -920 341 -171 773 -239 1198 -186 537 66 1078 360 1418 770 272 328 431 692 496 1134 24 166 24 504 -1 675 -112 793 -596 1476 -1294 1824 -50 25 -126 60 -168 76 -82 33 -305 103 -310 97 -2 -2 42 -27 99 -56 331 -173 611 -422 809 -721 81 -122 194 -346 238 -475 178 -513 151 -1054 -75 -1521 -139 -286 -357 -509 -635 -649 -302 -151 -613 -188 -937 -110 -383 92 -697 343 -912 730 -28 50 -86 170 -129 267 -138 308 -188 370 -303 370 -107 0 -227 -107 -307 -274 -26 -54 -49 -97 -52 -97 -3 0 -26 43 -52 97 -80 167 -200 274 -307 274 -115 0 -165 -62 -303 -370 -43 -97 -101 -217 -129 -267 -215 -387 -529 -638 -912 -730 -324 -78 -635 -41 -937 110 -134 68 -232 137 -342 243 -125 121 -207 234 -288 397 -231 469 -260 1012 -80 1530 17 50 62 153 100 230 205 418 522 743 945 964 142 75 141 76 -22 26z" id="svg_2" fill="#ffffff" fill-opacity="1"/>
</g></g></svg>