<svg xmlns="http://www.w3.org/2000/svg" version="1.0" width="677.000000" height="676.000000" preserveAspectRatio="xMidYMid meet" style=""><rect id="backgroundrect" width="100%" height="100%" x="0" y="0" fill="none" stroke="none"/>
<metadata>
Created by potrace 1.15, written by Peter Selinger 2001-2017
</metadata>

<g class="currentLayer" style=""><title>Layer 1</title><g transform="translate(0,676) scale(0.10000000149011612,-0.10000000149011612) " fill="#1da1f2" stroke="#000000" id="svg_1" class="" fill-opacity="1" stroke-opacity="1" opacity="1" stroke-dasharray="none">
<path d="M1666.54700756073,5205.000000000001 c-465,-128 -841,-434 -999,-814 c-122,-291 -118,-623 10,-895 c267,-571 1021,-889 1764,-746 c377,73 674,275 817,558 c17,34 33,62 35,62 c2,0 18,-28 35,-62 c72,-142 194,-275 338,-369 c417,-273 1076,-298 1592,-62 c367,168 628,461 717,801 c33,129 41,318 19,452 c-74,452 -420,838 -916,1023 c-83,31 -243,77 -267,77 c-4,0 47,-27 115,-60 c297,-144 501,-335 622,-584 c75,-153 93,-232 94,-406 c1,-112 -3,-161 -18,-215 c-71,-266 -223,-452 -466,-575 c-151,-76 -304,-111 -490,-111 c-195,0 -344,35 -497,116 c-193,102 -297,212 -438,465 c-95,170 -155,212 -252,175 c-58,-22 -118,-77 -158,-142 l-29,-50 l-36,56 c-45,70 -95,113 -154,136 c-96,37 -157,-5 -251,-175 c-141,-253 -245,-363 -438,-465 c-153,-81 -302,-116 -497,-116 c-186,0 -339,35 -490,111 c-243,123 -394,309 -466,575 c-15,55 -19,102 -18,215 c1,175 20,254 94,406 c121,249 325,440 622,584 c68,33 116,60 108,59 c-8,0 -54,-11 -102,-24 z" id="svg_2" fill="#1da1f2" stroke="#000000" stroke-opacity="1" opacity="1" stroke-dasharray="none" fill-opacity="1"/>
<path d="M5078.54700756073,2365.000000000001 c0,-11 11,-15 40,-15 c49,0 98,-19 125,-50 c19,-21 20,-39 23,-524 c2,-275 0,-529 -3,-564 c-9,-89 -32,-113 -116,-121 c-50,-5 -65,-10 -67,-23 c-3,-17 18,-18 343,-18 c325,0 346,1 343,17 c-2,14 -16,19 -58,23 c-30,3 -65,11 -77,18 c-45,25 -48,43 -51,320 l-4,262 l236,0 l236,0 l0,-260 c0,-283 -4,-305 -55,-328 c-14,-7 -48,-12 -75,-12 c-43,0 -50,-3 -50,-20 c0,-20 7,-20 340,-20 c333,0 340,0 340,20 c0,18 -7,20 -56,20 c-50,0 -59,3 -90,34 l-34,34 l0,551 c0,613 -1,599 65,627 c19,8 53,14 75,14 c29,0 40,4 40,15 c0,13 -44,15 -340,15 c-296,0 -340,-2 -340,-15 c0,-11 11,-15 41,-15 c23,0 56,-7 75,-16 c64,-30 64,-33 64,-306 l0,-248 l-236,0 l-236,0 l4,243 c3,215 5,246 21,271 c23,34 73,56 127,56 c29,0 40,4 40,15 c0,13 -45,15 -345,15 c-300,0 -345,-2 -345,-15 z" id="svg_3" fill="#1da1f2" stroke="#000000" stroke-opacity="1" opacity="1" stroke-dasharray="none" fill-opacity="1"/>
<path d="M4158.54700756073,2054.000000000001 c-203,-40 -373,-186 -430,-372 c-24,-76 -27,-211 -6,-287 c32,-121 129,-246 232,-298 c207,-105 473,-82 627,53 c39,34 47,48 47,76 c0,19 -1,34 -3,34 c-2,0 -27,-23 -57,-51 c-107,-98 -244,-139 -366,-110 c-152,37 -236,200 -236,456 c1,176 40,286 133,369 c153,138 396,80 482,-114 c14,-30 27,-63 30,-72 c4,-10 11,-18 17,-18 c6,0 10,60 10,170 c0,110 -4,170 -10,170 c-6,0 -13,-8 -17,-17 c-10,-30 -35,-53 -56,-53 c-11,0 -60,14 -109,31 c-88,30 -223,45 -288,33 z" id="svg_4" fill="#1da1f2" stroke="#000000" stroke-opacity="1" opacity="1" stroke-dasharray="none" fill-opacity="1"/>
<path d="M2750.54700756073,1824.000000000001 c-29,-7 -67,-21 -84,-30 c-52,-27 -137,-120 -166,-181 c-24,-53 -27,-69 -27,-173 c0,-108 2,-119 32,-182 c74,-157 230,-241 415,-224 c144,13 258,88 318,210 c121,246 0,527 -252,586 c-61,14 -174,11 -236,-6 zm205,-40 c71,-34 109,-114 124,-263 c20,-186 -24,-366 -102,-422 c-46,-33 -153,-35 -196,-3 c-79,59 -108,149 -108,339 c0,158 14,224 63,291 c51,70 142,94 219,58 z" id="svg_5" fill="#1da1f2" stroke="#000000" stroke-opacity="1" opacity="1" stroke-dasharray="none" fill-opacity="1"/>
<path d="M1608.54700756073,1717.000000000001 c-91,-26 -173,-97 -213,-186 c-31,-67 -31,-216 1,-285 c36,-80 85,-131 160,-168 c61,-30 74,-33 162,-33 c136,1 218,41 284,138 c121,180 65,423 -120,513 c-65,32 -200,42 -274,21 zm190,-39 c50,-34 79,-99 92,-205 c21,-172 -20,-337 -95,-383 c-42,-26 -112,-26 -155,0 c-136,83 -130,518 8,591 c48,26 109,24 150,-3 z" id="svg_6" fill="#1da1f2" stroke="#000000" stroke-opacity="1" opacity="1" stroke-dasharray="none" fill-opacity="1"/>
<path d="M277.54700756073,1590.000000000001 c18,-4 37,-14 42,-22 c5,-7 9,-115 9,-239 c0,-244 -2,-252 -55,-268 c-22,-7 -4,-9 70,-9 c76,0 93,2 69,9 c-17,5 -37,15 -43,23 c-8,9 -11,79 -9,232 l3,218 l104,-242 c58,-133 108,-239 112,-235 c4,5 52,116 108,248 l100,240 l1,-231 c0,-247 0,-248 -50,-257 c-14,-2 40,-4 120,-5 c93,0 133,3 111,8 c-18,4 -38,14 -42,22 c-11,15 -7,483 3,493 c4,4 22,11 40,15 c22,6 -7,8 -81,7 l-114,-2 l-64,-155 c-34,-85 -68,-166 -74,-180 c-10,-22 -17,-9 -88,155 l-77,180 l-114,2 c-77,1 -104,-1 -81,-7 z" id="svg_7" fill="#1da1f2" stroke="#000000" stroke-opacity="1" opacity="1" stroke-dasharray="none" fill-opacity="1"/>
</g></g></svg>