<?xml version="1.0" standalone="no"?>
<!DOCTYPE svg PUBLIC "-//W3C//DTD SVG 20010904//EN"
 "http://www.w3.org/TR/2001/REC-SVG-20010904/DTD/svg10.dtd">
<svg version="1.0" xmlns="http://www.w3.org/2000/svg"
 width="677.000000pt" height="676.000000pt" viewBox="0 0 677.000000 676.000000"
 preserveAspectRatio="xMidYMid meet">
<metadata>
Created by potrace 1.15, written by Peter Selinger 2001-2017
</metadata>
<g transform="translate(0.000000,676.000000) scale(0.100000,-0.100000)"
fill="#000000" stroke="none">
<path d="M1658 5205 c-465 -128 -841 -434 -999 -814 -122 -291 -118 -623 10
-895 267 -571 1021 -889 1764 -746 377 73 674 275 817 558 17 34 33 62 35 62
2 0 18 -28 35 -62 72 -142 194 -275 338 -369 417 -273 1076 -298 1592 -62 367
168 628 461 717 801 33 129 41 318 19 452 -74 452 -420 838 -916 1023 -83 31
-243 77 -267 77 -4 0 47 -27 115 -60 297 -144 501 -335 622 -584 75 -153 93
-232 94 -406 1 -112 -3 -161 -18 -215 -71 -266 -223 -452 -466 -575 -151 -76
-304 -111 -490 -111 -195 0 -344 35 -497 116 -193 102 -297 212 -438 465 -95
170 -155 212 -252 175 -58 -22 -118 -77 -158 -142 l-29 -50 -36 56 c-45 70
-95 113 -154 136 -96 37 -157 -5 -251 -175 -141 -253 -245 -363 -438 -465
-153 -81 -302 -116 -497 -116 -186 0 -339 35 -490 111 -243 123 -394 309 -466
575 -15 55 -19 102 -18 215 1 175 20 254 94 406 121 249 325 440 622 584 68
33 116 60 108 59 -8 0 -54 -11 -102 -24z"/>
<path d="M5070 2365 c0 -11 11 -15 40 -15 49 0 98 -19 125 -50 19 -21 20 -39
23 -524 2 -275 0 -529 -3 -564 -9 -89 -32 -113 -116 -121 -50 -5 -65 -10 -67
-23 -3 -17 18 -18 343 -18 325 0 346 1 343 17 -2 14 -16 19 -58 23 -30 3 -65
11 -77 18 -45 25 -48 43 -51 320 l-4 262 236 0 236 0 0 -260 c0 -283 -4 -305
-55 -328 -14 -7 -48 -12 -75 -12 -43 0 -50 -3 -50 -20 0 -20 7 -20 340 -20
333 0 340 0 340 20 0 18 -7 20 -56 20 -50 0 -59 3 -90 34 l-34 34 0 551 c0
613 -1 599 65 627 19 8 53 14 75 14 29 0 40 4 40 15 0 13 -44 15 -340 15 -296
0 -340 -2 -340 -15 0 -11 11 -15 41 -15 23 0 56 -7 75 -16 64 -30 64 -33 64
-306 l0 -248 -236 0 -236 0 4 243 c3 215 5 246 21 271 23 34 73 56 127 56 29
0 40 4 40 15 0 13 -45 15 -345 15 -300 0 -345 -2 -345 -15z"/>
<path d="M4150 2054 c-203 -40 -373 -186 -430 -372 -24 -76 -27 -211 -6 -287
32 -121 129 -246 232 -298 207 -105 473 -82 627 53 39 34 47 48 47 76 0 19 -1
34 -3 34 -2 0 -27 -23 -57 -51 -107 -98 -244 -139 -366 -110 -152 37 -236 200
-236 456 1 176 40 286 133 369 153 138 396 80 482 -114 14 -30 27 -63 30 -72
4 -10 11 -18 17 -18 6 0 10 60 10 170 0 110 -4 170 -10 170 -6 0 -13 -8 -17
-17 -10 -30 -35 -53 -56 -53 -11 0 -60 14 -109 31 -88 30 -223 45 -288 33z"/>
<path d="M2742 1824 c-29 -7 -67 -21 -84 -30 -52 -27 -137 -120 -166 -181 -24
-53 -27 -69 -27 -173 0 -108 2 -119 32 -182 74 -157 230 -241 415 -224 144 13
258 88 318 210 121 246 0 527 -252 586 -61 14 -174 11 -236 -6z m205 -40 c71
-34 109 -114 124 -263 20 -186 -24 -366 -102 -422 -46 -33 -153 -35 -196 -3
-79 59 -108 149 -108 339 0 158 14 224 63 291 51 70 142 94 219 58z"/>
<path d="M1600 1717 c-91 -26 -173 -97 -213 -186 -31 -67 -31 -216 1 -285 36
-80 85 -131 160 -168 61 -30 74 -33 162 -33 136 1 218 41 284 138 121 180 65
423 -120 513 -65 32 -200 42 -274 21z m190 -39 c50 -34 79 -99 92 -205 21
-172 -20 -337 -95 -383 -42 -26 -112 -26 -155 0 -136 83 -130 518 8 591 48 26
109 24 150 -3z"/>
<path d="M269 1590 c18 -4 37 -14 42 -22 5 -7 9 -115 9 -239 0 -244 -2 -252
-55 -268 -22 -7 -4 -9 70 -9 76 0 93 2 69 9 -17 5 -37 15 -43 23 -8 9 -11 79
-9 232 l3 218 104 -242 c58 -133 108 -239 112 -235 4 5 52 116 108 248 l100
240 1 -231 c0 -247 0 -248 -50 -257 -14 -2 40 -4 120 -5 93 0 133 3 111 8 -18
4 -38 14 -42 22 -11 15 -7 483 3 493 4 4 22 11 40 15 22 6 -7 8 -81 7 l-114
-2 -64 -155 c-34 -85 -68 -166 -74 -180 -10 -22 -17 -9 -88 155 l-77 180 -114
2 c-77 1 -104 -1 -81 -7z"/>
</g>
</svg>
