<?xml version="1.0" standalone="no"?>
<!DOCTYPE svg PUBLIC "-//W3C//DTD SVG 20010904//EN"
 "http://www.w3.org/TR/2001/REC-SVG-20010904/DTD/svg10.dtd">
<svg version="1.0" xmlns="http://www.w3.org/2000/svg"
 width="1280.000000pt" height="640.000000pt" viewBox="0 0 1280.000000 640.000000"
 preserveAspectRatio="xMidYMid meet">
<g transform="translate(0.000000,640.000000) scale(0.100000,-0.100000)"
fill="#000000" stroke="none">
<path d="M5045 4944 c-295 -31 -585 -114 -822 -235 -370 -190 -669 -461 -1183
-1074 -484 -577 -701 -774 -1031 -940 -461 -233 -1027 -267 -1404 -85 -104 51
-156 97 -196 177 -120 239 -48 497 169 607 152 77 247 24 303 -169 l18 -60 0
53 c2 123 -47 272 -112 341 -94 99 -263 96 -468 -10 -160 -83 -250 -215 -294
-434 -30 -146 -30 -155 -4 -308 84 -483 368 -834 874 -1082 273 -133 560 -211
950 -257 145 -17 677 -17 860 0 414 38 941 123 1260 203 717 180 1520 566
2030 978 104 84 290 267 348 344 29 37 55 67 59 67 4 0 22 -21 40 -47 69 -102
267 -291 448 -429 505 -385 1267 -743 1945 -913 257 -64 716 -143 1050 -180
695 -78 1276 -39 1723 113 155 53 207 74 325 135 409 207 679 498 795 857 30
90 72 306 72 366 0 18 -11 87 -25 153 -31 154 -80 257 -161 337 -134 134 -395
215 -522 162 -106 -44 -176 -181 -187 -364 l-5 -85 18 60 c60 195 151 246 305
168 219 -110 290 -379 164 -616 -49 -93 -147 -161 -312 -215 -378 -125 -849
-77 -1270 128 -304 148 -536 348 -895 770 -91 107 -232 273 -315 369 -186 219
-456 492 -595 601 -288 228 -554 366 -860 444 -182 46 -315 66 -500 73 -467
17 -859 -134 -1148 -443 l-90 -96 -119 119 c-212 214 -438 334 -741 393 -104
21 -395 35 -497 24z"/>
</g>
</svg>
